<svg id="Livello_1" data-name="Livello 1" xmlns="http://www.w3.org/2000/svg" viewBox="0 0 2599 762.92"><defs><style>.cls-1{fill:#272425;}.cls-2{fill:#ffd817;}</style></defs><title>bhertzLogo</title><path class="cls-1" d="M2582.29,1157.07c-17.59-19.06-7.33-56.45,2.2-99.7l30.79-145.15h126.09l22.72-107.76H2638l22.73-107.76H2541.24l-77.71,370.93c-11.72,55.72-16.12,99,8.07,145.88,22,43.25,98.23,85,194.26,58.65l21.26-100.43c-66,8.06-91.63-.73-104.83-14.66M2260.48,844.78c-41.79,35.19-65.25,80.64-80.64,153.21l-57.91,273.44h119.49l47.65-226.52c11-52.78,19.79-86.5,39.58-107,27.12-27.85,66.71-29.32,114.36-25.66l22.72-107.76c-83.57-21.25-156.87,0-205.25,40.32M3190,804.46H2818.34l-22.73,107.76h215.52l-269.76,255.11-22,104.1H3091l22.72-107.76h-217L3168,907.09ZM1935,796.4c-40.32,0-95.3,12.46-148.82,55-122.42,96-182.53,428.84,79.18,428.84,67.44,0,142.94-21.26,195.72-61.58L2014.17,1138c-39.59,30.79-239.71,97.5-218.46-65.24h311.56s39.58-130.49-17.6-208.93c-48.38-66.71-137.81-67.44-154.67-67.44m77.7,178.13H1821.37c6.6-25.65,47.65-89.43,122.42-82.83,81.37,7.33,68.91,82.83,68.91,82.83" transform="translate(-591 -677.08)"/><path class="cls-1" d="M616,1268.17,748,738.94q6.43-25.77,29-43.81t48.31-18h216.51q91,0,129.76,37.81,37.8,41.24,20.26,111.69-11.15,44.7-37.75,75.6-26.22,29.24-64.84,46.39,39.94,18.93,55.45,53.27,14.18,32.67.92,85.92-21.42,85.93-88.4,134-68.27,46.4-171.37,46.39ZM823.24,905.62H962.42q44.66,0,69.15-15.47T1064.19,842q8.13-32.62-8.63-48.11-13.77-13.73-63.58-13.75H854.51Zm-63.84,256H903.74q48.09,0,78.6-18.9,28.32-17.16,38.62-58.42t-9.06-60.14Q993.83,1007,940.58,1007H798Z" transform="translate(-591 -677.08)"/><path class="cls-1" d="M1519.89,940q-16.77-36.08-61.45-36.08-48.14,0-82.45,34.36t-49.34,94.51L1268,1268.17H1151.11l147.38-591.09h58.42q24,0,36.95,17.19t6.9,41.24l-33.84,135.74q43.78-51.54,103.91-65.29t106.54,6.87q42.95,20.63,64.48,65.29t1.8,123.72l-66.4,266.33H1462.12l59.12-237.12a248.27,248.27,0,0,0,7.49-47.25Q1529.77,962.34,1519.89,940Z" transform="translate(-591 -677.08)"/><polyline class="cls-2" points="2477.75 748.68 2491 641.92 17.67 641.92 0 762.92"/></svg>